<mxfile host="Electron" agent="Mozilla/5.0 (Windows NT 10.0; Win64; x64) AppleWebKit/537.36 (KHTML, like Gecko) draw.io/24.7.17 Chrome/128.0.6613.36 Electron/32.0.1 Safari/537.36" version="24.7.17">
  <diagram name="Página-1" id="bXPNx1Ns-3Bn9hIi3lOh">
    <mxGraphModel dx="880" dy="532" grid="1" gridSize="10" guides="1" tooltips="1" connect="1" arrows="1" fold="1" page="1" pageScale="1" pageWidth="827" pageHeight="1169" math="0" shadow="0">
      <root>
        <mxCell id="0" />
        <mxCell id="1" parent="0" />
        <mxCell id="wW0J7-qB3fYssY70nvXL-8" value="" style="edgeStyle=orthogonalEdgeStyle;rounded=0;orthogonalLoop=1;jettySize=auto;html=1;" edge="1" parent="1" source="wW0J7-qB3fYssY70nvXL-1" target="wW0J7-qB3fYssY70nvXL-7">
          <mxGeometry relative="1" as="geometry" />
        </mxCell>
        <mxCell id="wW0J7-qB3fYssY70nvXL-12" value="" style="edgeStyle=orthogonalEdgeStyle;rounded=0;orthogonalLoop=1;jettySize=auto;html=1;" edge="1" parent="1" source="wW0J7-qB3fYssY70nvXL-1" target="wW0J7-qB3fYssY70nvXL-10">
          <mxGeometry relative="1" as="geometry" />
        </mxCell>
        <mxCell id="wW0J7-qB3fYssY70nvXL-1" value="CLUB" style="whiteSpace=wrap;html=1;" vertex="1" parent="1">
          <mxGeometry x="100" y="240" width="120" height="60" as="geometry" />
        </mxCell>
        <mxCell id="wW0J7-qB3fYssY70nvXL-5" style="edgeStyle=orthogonalEdgeStyle;rounded=0;orthogonalLoop=1;jettySize=auto;html=1;entryX=0;entryY=0.5;entryDx=0;entryDy=0;" edge="1" parent="1" source="wW0J7-qB3fYssY70nvXL-2" target="wW0J7-qB3fYssY70nvXL-4">
          <mxGeometry relative="1" as="geometry">
            <Array as="points">
              <mxPoint x="570" y="380" />
            </Array>
          </mxGeometry>
        </mxCell>
        <mxCell id="wW0J7-qB3fYssY70nvXL-6" style="edgeStyle=orthogonalEdgeStyle;rounded=0;orthogonalLoop=1;jettySize=auto;html=1;entryX=1;entryY=0.5;entryDx=0;entryDy=0;exitX=1;exitY=1;exitDx=0;exitDy=0;" edge="1" parent="1" source="wW0J7-qB3fYssY70nvXL-2" target="wW0J7-qB3fYssY70nvXL-4">
          <mxGeometry relative="1" as="geometry">
            <Array as="points">
              <mxPoint x="690" y="380" />
            </Array>
          </mxGeometry>
        </mxCell>
        <mxCell id="wW0J7-qB3fYssY70nvXL-31" value="" style="edgeStyle=orthogonalEdgeStyle;rounded=0;orthogonalLoop=1;jettySize=auto;html=1;" edge="1" parent="1" source="wW0J7-qB3fYssY70nvXL-2" target="wW0J7-qB3fYssY70nvXL-30">
          <mxGeometry relative="1" as="geometry" />
        </mxCell>
        <mxCell id="wW0J7-qB3fYssY70nvXL-2" value="FUTBOLISTA" style="whiteSpace=wrap;html=1;" vertex="1" parent="1">
          <mxGeometry x="570" y="240" width="120" height="60" as="geometry" />
        </mxCell>
        <mxCell id="wW0J7-qB3fYssY70nvXL-4" value="juegaCON" style="rhombus;whiteSpace=wrap;html=1;" vertex="1" parent="1">
          <mxGeometry x="590" y="340" width="80" height="80" as="geometry" />
        </mxCell>
        <mxCell id="wW0J7-qB3fYssY70nvXL-9" style="edgeStyle=orthogonalEdgeStyle;rounded=0;orthogonalLoop=1;jettySize=auto;html=1;entryX=0;entryY=0.5;entryDx=0;entryDy=0;" edge="1" parent="1" source="wW0J7-qB3fYssY70nvXL-7" target="wW0J7-qB3fYssY70nvXL-2">
          <mxGeometry relative="1" as="geometry" />
        </mxCell>
        <mxCell id="wW0J7-qB3fYssY70nvXL-7" value="ENTRENA" style="rhombus;whiteSpace=wrap;html=1;" vertex="1" parent="1">
          <mxGeometry x="360" y="230" width="80" height="80" as="geometry" />
        </mxCell>
        <mxCell id="wW0J7-qB3fYssY70nvXL-13" value="" style="edgeStyle=orthogonalEdgeStyle;rounded=0;orthogonalLoop=1;jettySize=auto;html=1;" edge="1" parent="1" source="wW0J7-qB3fYssY70nvXL-10" target="wW0J7-qB3fYssY70nvXL-11">
          <mxGeometry relative="1" as="geometry" />
        </mxCell>
        <mxCell id="wW0J7-qB3fYssY70nvXL-10" value="tiene" style="rhombus;whiteSpace=wrap;html=1;" vertex="1" parent="1">
          <mxGeometry x="120" y="340" width="80" height="80" as="geometry" />
        </mxCell>
        <mxCell id="wW0J7-qB3fYssY70nvXL-11" value="COLORES" style="whiteSpace=wrap;html=1;" vertex="1" parent="1">
          <mxGeometry x="100" y="470" width="120" height="60" as="geometry" />
        </mxCell>
        <mxCell id="wW0J7-qB3fYssY70nvXL-14" value="Color           " style="shape=waypoint;sketch=0;size=6;pointerEvents=1;points=[];fillColor=none;resizable=0;rotatable=0;perimeter=centerPerimeter;snapToPoint=1;" vertex="1" parent="1">
          <mxGeometry x="70" y="480" width="20" height="20" as="geometry" />
        </mxCell>
        <mxCell id="wW0J7-qB3fYssY70nvXL-15" style="edgeStyle=orthogonalEdgeStyle;rounded=0;orthogonalLoop=1;jettySize=auto;html=1;entryX=0;entryY=0.323;entryDx=0;entryDy=0;entryPerimeter=0;endArrow=none;endFill=0;" edge="1" source="wW0J7-qB3fYssY70nvXL-14" parent="1">
          <mxGeometry relative="1" as="geometry">
            <mxPoint x="100" y="489" as="targetPoint" />
          </mxGeometry>
        </mxCell>
        <mxCell id="wW0J7-qB3fYssY70nvXL-16" value="(1,N)" style="text;html=1;align=center;verticalAlign=middle;resizable=0;points=[];autosize=1;strokeColor=none;fillColor=none;" vertex="1" parent="1">
          <mxGeometry x="165" y="308" width="50" height="30" as="geometry" />
        </mxCell>
        <mxCell id="wW0J7-qB3fYssY70nvXL-17" value="(0,N)" style="text;html=1;align=center;verticalAlign=middle;resizable=0;points=[];autosize=1;strokeColor=none;fillColor=none;" vertex="1" parent="1">
          <mxGeometry x="165" y="438" width="50" height="30" as="geometry" />
        </mxCell>
        <mxCell id="wW0J7-qB3fYssY70nvXL-18" value="(0,N)" style="text;html=1;align=center;verticalAlign=middle;resizable=0;points=[];autosize=1;strokeColor=none;fillColor=none;" vertex="1" parent="1">
          <mxGeometry x="215" y="278" width="50" height="30" as="geometry" />
        </mxCell>
        <mxCell id="wW0J7-qB3fYssY70nvXL-19" value="(1,1)" style="text;html=1;align=center;verticalAlign=middle;resizable=0;points=[];autosize=1;strokeColor=none;fillColor=none;" vertex="1" parent="1">
          <mxGeometry x="495" y="278" width="50" height="30" as="geometry" />
        </mxCell>
        <mxCell id="wW0J7-qB3fYssY70nvXL-20" value="(1,N)" style="text;html=1;align=center;verticalAlign=middle;resizable=0;points=[];autosize=1;strokeColor=none;fillColor=none;" vertex="1" parent="1">
          <mxGeometry x="570" y="300" width="50" height="30" as="geometry" />
        </mxCell>
        <mxCell id="wW0J7-qB3fYssY70nvXL-21" value="(1,N)" style="text;html=1;align=center;verticalAlign=middle;resizable=0;points=[];autosize=1;strokeColor=none;fillColor=none;" vertex="1" parent="1">
          <mxGeometry x="690" y="300" width="50" height="30" as="geometry" />
        </mxCell>
        <mxCell id="wW0J7-qB3fYssY70nvXL-22" value="&lt;span style=&quot;background-color: initial;&quot;&gt;&amp;nbsp; &amp;nbsp; &amp;nbsp; &amp;nbsp; &amp;nbsp; &amp;nbsp; &amp;nbsp; &amp;nbsp; o Cantidad de Socios&lt;/span&gt;&lt;div&gt;&lt;br&gt;&lt;/div&gt;" style="text;html=1;align=center;verticalAlign=middle;resizable=0;points=[];autosize=1;strokeColor=none;fillColor=none;" vertex="1" parent="1">
          <mxGeometry x="120" y="210" width="190" height="40" as="geometry" />
        </mxCell>
        <mxCell id="wW0J7-qB3fYssY70nvXL-23" value="direccion o" style="text;html=1;align=center;verticalAlign=middle;resizable=0;points=[];autosize=1;strokeColor=none;fillColor=none;" vertex="1" parent="1">
          <mxGeometry x="20" y="240" width="80" height="30" as="geometry" />
        </mxCell>
        <mxCell id="wW0J7-qB3fYssY70nvXL-24" value="Razon Social                       " style="shape=waypoint;sketch=0;size=6;pointerEvents=1;points=[];fillColor=none;resizable=0;rotatable=0;perimeter=centerPerimeter;snapToPoint=1;" vertex="1" parent="1">
          <mxGeometry x="70" y="270" width="20" height="20" as="geometry" />
        </mxCell>
        <mxCell id="wW0J7-qB3fYssY70nvXL-25" style="edgeStyle=orthogonalEdgeStyle;rounded=0;orthogonalLoop=1;jettySize=auto;html=1;entryX=0;entryY=0.323;entryDx=0;entryDy=0;entryPerimeter=0;endArrow=none;endFill=0;" edge="1" source="wW0J7-qB3fYssY70nvXL-24" parent="1">
          <mxGeometry relative="1" as="geometry">
            <mxPoint x="100" y="279" as="targetPoint" />
          </mxGeometry>
        </mxCell>
        <mxCell id="wW0J7-qB3fYssY70nvXL-26" value="DNI        " style="shape=waypoint;sketch=0;size=6;pointerEvents=1;points=[];fillColor=none;resizable=0;rotatable=0;perimeter=centerPerimeter;snapToPoint=1;" vertex="1" parent="1">
          <mxGeometry x="540" y="230" width="20" height="20" as="geometry" />
        </mxCell>
        <mxCell id="wW0J7-qB3fYssY70nvXL-27" style="edgeStyle=orthogonalEdgeStyle;rounded=0;orthogonalLoop=1;jettySize=auto;html=1;entryX=0;entryY=0.323;entryDx=0;entryDy=0;entryPerimeter=0;endArrow=none;endFill=0;" edge="1" source="wW0J7-qB3fYssY70nvXL-26" parent="1">
          <mxGeometry relative="1" as="geometry">
            <mxPoint x="570" y="239" as="targetPoint" />
          </mxGeometry>
        </mxCell>
        <mxCell id="wW0J7-qB3fYssY70nvXL-28" value="               CUIT" style="shape=waypoint;sketch=0;size=6;pointerEvents=1;points=[];fillColor=none;resizable=0;rotatable=0;perimeter=centerPerimeter;snapToPoint=1;" vertex="1" parent="1">
          <mxGeometry x="700" y="245" width="20" height="20" as="geometry" />
        </mxCell>
        <mxCell id="wW0J7-qB3fYssY70nvXL-29" style="edgeStyle=orthogonalEdgeStyle;rounded=0;orthogonalLoop=1;jettySize=auto;html=1;entryX=1;entryY=0.25;entryDx=0;entryDy=0;endArrow=none;endFill=0;" edge="1" source="wW0J7-qB3fYssY70nvXL-28" parent="1" target="wW0J7-qB3fYssY70nvXL-2">
          <mxGeometry relative="1" as="geometry">
            <mxPoint x="730" y="254" as="targetPoint" />
          </mxGeometry>
        </mxCell>
        <mxCell id="wW0J7-qB3fYssY70nvXL-33" value="" style="edgeStyle=orthogonalEdgeStyle;rounded=0;orthogonalLoop=1;jettySize=auto;html=1;" edge="1" parent="1" source="wW0J7-qB3fYssY70nvXL-30" target="wW0J7-qB3fYssY70nvXL-32">
          <mxGeometry relative="1" as="geometry" />
        </mxCell>
        <mxCell id="wW0J7-qB3fYssY70nvXL-30" value="posee" style="rhombus;whiteSpace=wrap;html=1;" vertex="1" parent="1">
          <mxGeometry x="590" y="110" width="80" height="80" as="geometry" />
        </mxCell>
        <mxCell id="wW0J7-qB3fYssY70nvXL-32" value="POSICION" style="whiteSpace=wrap;html=1;" vertex="1" parent="1">
          <mxGeometry x="570" y="10" width="120" height="60" as="geometry" />
        </mxCell>
        <mxCell id="wW0J7-qB3fYssY70nvXL-34" value="NUMERO POSICION                                    " style="shape=waypoint;sketch=0;size=6;pointerEvents=1;points=[];fillColor=none;resizable=0;rotatable=0;perimeter=centerPerimeter;snapToPoint=1;" vertex="1" parent="1">
          <mxGeometry x="540" y="20" width="20" height="20" as="geometry" />
        </mxCell>
        <mxCell id="wW0J7-qB3fYssY70nvXL-35" style="edgeStyle=orthogonalEdgeStyle;rounded=0;orthogonalLoop=1;jettySize=auto;html=1;entryX=0;entryY=0.323;entryDx=0;entryDy=0;entryPerimeter=0;endArrow=none;endFill=0;" edge="1" source="wW0J7-qB3fYssY70nvXL-34" parent="1">
          <mxGeometry relative="1" as="geometry">
            <mxPoint x="570" y="29" as="targetPoint" />
          </mxGeometry>
        </mxCell>
        <mxCell id="wW0J7-qB3fYssY70nvXL-36" value="(1,N)" style="text;html=1;align=center;verticalAlign=middle;resizable=0;points=[];autosize=1;strokeColor=none;fillColor=none;" vertex="1" parent="1">
          <mxGeometry x="635" y="198" width="50" height="30" as="geometry" />
        </mxCell>
        <mxCell id="wW0J7-qB3fYssY70nvXL-37" value="(0,N)" style="text;html=1;align=center;verticalAlign=middle;resizable=0;points=[];autosize=1;strokeColor=none;fillColor=none;" vertex="1" parent="1">
          <mxGeometry x="635" y="70" width="50" height="30" as="geometry" />
        </mxCell>
        <mxCell id="wW0J7-qB3fYssY70nvXL-38" value="&lt;pre style=&quot;font-size: 8px;&quot;&gt;&lt;font style=&quot;font-size: 8px;&quot;&gt;o nombre&lt;br&gt;&lt;/font&gt;&lt;font style=&quot;font-size: 8px;&quot;&gt;o apellido&lt;br&gt;&lt;/font&gt;&lt;font style=&quot;font-size: 8px;&quot;&gt;o apodo&lt;br&gt;&lt;/font&gt;&lt;font style=&quot;font-size: 8px;&quot;&gt;o cantidad de goles&lt;/font&gt;&lt;/pre&gt;" style="text;html=1;align=left;verticalAlign=middle;resizable=0;points=[];autosize=1;strokeColor=none;fillColor=none;" vertex="1" parent="1">
          <mxGeometry x="690" y="245" width="110" height="70" as="geometry" />
        </mxCell>
        <mxCell id="wW0J7-qB3fYssY70nvXL-39" value="CLUB=(&lt;u&gt;RazonSocial&lt;/u&gt;, direccion, CantSocios)&lt;div style=&quot;&quot;&gt;COLORES=(&lt;u&gt;color&lt;/u&gt;)&lt;/div&gt;&lt;div style=&quot;&quot;&gt;FUTBOLISTA=(&lt;u&gt;DNI&lt;/u&gt;,CUIT&lt;u&gt;, &lt;/u&gt;nombre,apellido,apodo,cantidad de goles, razonSocial(fk))&lt;/div&gt;&lt;div style=&quot;&quot;&gt;POSICION=(&lt;u&gt;Numero de Pos&lt;/u&gt;)&lt;/div&gt;&lt;div style=&quot;&quot;&gt;TIENE=(&lt;u&gt;RazonSocial&lt;/u&gt;,Color)&lt;/div&gt;&lt;div style=&quot;&quot;&gt;POSEE=(&lt;u&gt;DNI&lt;/u&gt;, NUMEROPOS)&lt;/div&gt;&lt;div style=&quot;&quot;&gt;juegaCON=(DNI, DNIcompañero)&lt;/div&gt;" style="text;html=1;align=left;verticalAlign=middle;resizable=0;points=[];autosize=1;strokeColor=none;fillColor=none;" vertex="1" parent="1">
          <mxGeometry x="260" y="435" width="480" height="110" as="geometry" />
        </mxCell>
      </root>
    </mxGraphModel>
  </diagram>
</mxfile>
